<?xml version="1.0" encoding="UTF-8" standalone="no"?>
<!-- Created with Inkscape (http://www.inkscape.org/) -->

<svg
   xmlns:dc="http://purl.org/dc/elements/1.1/"
   xmlns:cc="http://creativecommons.org/ns#"
   xmlns:rdf="http://www.w3.org/1999/02/22-rdf-syntax-ns#"
   xmlns:svg="http://www.w3.org/2000/svg"
   xmlns="http://www.w3.org/2000/svg"
   xmlns:sodipodi="http://sodipodi.sourceforge.net/DTD/sodipodi-0.dtd"
   xmlns:inkscape="http://www.inkscape.org/namespaces/inkscape"
   width="922.09003"
   height="162.36"
   id="svg2"
   version="1.1"
   inkscape:version="0.48.5 r10040"
   sodipodi:docname="New document 1">
  <defs
     id="defs4" />
  <sodipodi:namedview
     id="base"
     pagecolor="#ffffff"
     bordercolor="#666666"
     borderopacity="1.0"
     inkscape:pageopacity="0.0"
     inkscape:pageshadow="2"
     inkscape:zoom="0.7"
     inkscape:cx="48.90325"
     inkscape:cy="515.75834"
     inkscape:document-units="px"
     inkscape:current-layer="layer1"
     showgrid="false"
     showguides="true"
     inkscape:guide-bbox="true"
     inkscape:window-width="1920"
     inkscape:window-height="1004"
     inkscape:window-x="0"
     inkscape:window-y="24"
     inkscape:window-maximized="1" />
  <metadata
     id="metadata7">
    <rdf:RDF>
      <cc:Work
         rdf:about="">
        <dc:format>image/svg+xml</dc:format>
        <dc:type
           rdf:resource="http://purl.org/dc/dcmitype/StillImage" />
        <dc:title></dc:title>
      </cc:Work>
    </rdf:RDF>
  </metadata>
  <g
     inkscape:label="Layer 1"
     inkscape:groupmode="layer"
     id="layer1"
     transform="translate(0,-889.99373)">
    <g
       id="g3001"
       transform="matrix(0.03240133,0,0,-0.03240133,2.3031009,1099.8379)"
       style="fill:#000000;stroke:none">
      <path
         id="path3003"
         d="M 712,5677 C 398,5363 140,5102 140,5097 c 0,-4 1119,-7 2488,-7 l 2487,0 573,573 c 314,314 572,575 572,580 0,4 -1119,7 -2488,7 l -2487,0 -573,-573 z"
         inkscape:connector-curvature="0"
         style="fill:#125cb8;fill-opacity:1" />
      <path
         id="path3005"
         d="m 23312,4233 -401,-408 -1,-1072 0,-1073 405,0 405,0 0,1096 0,1096 343,-4 c 389,-5 416,-9 492,-79 59,-54 86,-120 86,-213 0,-40 -4,-91 -10,-113 -15,-56 -67,-129 -115,-162 -80,-56 -120,-63 -380,-70 l -240,-6 780,-789 779,-789 3,483 2,482 -165,170 -165,169 83,82 c 187,186 266,386 267,673 0,162 -17,275 -58,392 -40,113 -85,185 -172,272 -120,122 -265,196 -465,241 -93,20 -132,22 -585,26 l -486,5 -402,-409 z"
         inkscape:connector-curvature="0"
         style="fill:#125cb8;fill-opacity:1" />
      <path
         id="path3007"
         d="m 26021,4233 -400,-408 -1,-1072 0,-1073 935,0 935,0 0,370 0,370 -530,0 -530,0 0,180 0,180 530,0 530,0 0,360 0,360 -530,0 -530,0 0,180 0,180 528,0 527,0 325,328 c 179,180 352,355 385,390 l 59,62 -916,0 -916,0 -401,-407 z"
         inkscape:connector-curvature="0"
         style="fill:#125cb8;fill-opacity:1" />
      <path
         id="path3009"
         d="m 21012,3637 -992,-992 0,-485 0,-485 940,940 940,940 0,-388 0,-387 -283,0 -282,0 -360,-360 -360,-360 643,0 642,0 0,-190 0,-190 405,0 405,0 0,1475 0,1475 -353,0 -352,0 -993,-993 z"
         inkscape:connector-curvature="0"
         style="fill:#125cb8;fill-opacity:1" />
      <path
         id="path3011"
         d="m 15477,4575 c -344,-56 -614,-193 -858,-435 -199,-199 -305,-398 -371,-700 -20,-94 -22,-133 -23,-360 0,-226 3,-268 23,-367 60,-296 172,-514 362,-703 212,-211 480,-356 778,-421 73,-16 147,-22 302,-26 179,-5 221,-3 330,16 343,59 620,201 860,443 179,181 295,408 353,693 19,97 22,140 22,365 0,204 -4,273 -18,342 -46,230 -116,396 -234,553 -86,117 -308,337 -400,398 -138,91 -303,156 -498,193 -115,22 -511,28 -628,9 z m 499,-800 c 113,-38 208,-97 295,-185 133,-134 189,-286 190,-512 0,-222 -53,-375 -173,-504 -112,-119 -247,-195 -403,-225 -87,-17 -262,-12 -347,10 -275,71 -480,284 -528,549 -14,79 -14,265 1,345 45,249 222,443 481,527 136,44 345,42 484,-5 z"
         inkscape:connector-curvature="0"
         style="fill:#125cb8;fill-opacity:1" />
      <path
         id="path3013"
         d="m 18808,3913 -648,-648 0,640 -1,640 -384,-390 -384,-390 -1,-1093 0,-1094 638,632 637,632 3,-633 2,-632 1478,1483 c 812,815 1479,1487 1480,1491 2,5 -199,9 -451,9 l -454,0 -632,-626 -631,-626 -2,626 -3,626 -647,-647 z"
         inkscape:connector-curvature="0"
         style="fill:#125cb8;fill-opacity:1" />
      <path
         id="path3015"
         d="m 6868,4143 -408,-408 0,-1073 0,-1072 410,0 410,0 2,943 3,942 830,-825 c 457,-453 885,-878 953,-944 l 122,-121 0,1483 0,1482 -430,0 -430,0 0,-532 -1,-533 -527,533 -527,533 -407,-408 z"
         inkscape:connector-curvature="0"
         style="fill:#125cb8;fill-opacity:1" />
      <path
         id="path3017"
         d="m 9842,4167 c -210,-210 -382,-385 -382,-390 0,-4 167,-7 370,-7 l 370,0 0,-1090 0,-1090 405,0 405,0 0,1090 0,1090 133,0 132,0 330,333 c 182,182 355,358 385,390 l 54,57 -909,0 -910,0 -383,-383 z"
         inkscape:connector-curvature="0"
         style="fill:#125cb8;fill-opacity:1" />
      <path
         id="path3019"
         d="m 11912,4143 -401,-408 -1,-1072 0,-1073 405,0 405,0 0,1096 0,1096 343,-4 c 389,-5 416,-9 492,-79 59,-54 86,-120 86,-213 0,-40 -4,-91 -10,-113 -15,-56 -67,-129 -115,-162 -80,-56 -120,-63 -380,-70 l -240,-6 780,-789 779,-789 3,483 2,482 -165,170 -165,169 83,82 c 187,186 266,386 267,673 0,162 -17,275 -58,392 -40,113 -85,185 -172,272 -120,122 -265,196 -465,241 -93,20 -132,22 -585,26 l -486,5 -402,-409 z"
         inkscape:connector-curvature="0"
         style="fill:#125cb8;fill-opacity:1" />
      <path
         id="path3021"
         d="m 130,3905 0,-585 2055,0 2055,0 0,585 0,585 -2055,0 -2055,0 0,-585 z"
         inkscape:connector-curvature="0"
         style="fill:#125cb8;fill-opacity:1" />
      <path
         id="path3023"
         d="m 715,2170 580,-580 2482,0 c 1366,0 2483,3 2483,8 0,4 -258,265 -573,580 l -572,572 -2490,0 -2490,0 580,-580 z"
         inkscape:connector-curvature="0"
         style="fill:#125cb8;fill-opacity:1" />
    </g>
  </g>
</svg>
