<?xml version="1.0" encoding="UTF-8" standalone="no"?>
<!-- Created with Inkscape (http://www.inkscape.org/) -->
<svg id="svg2" xmlns:rdf="http://www.w3.org/1999/02/22-rdf-syntax-ns#" xmlns="http://www.w3.org/2000/svg" xml:space="preserve" height="375" viewBox="0 0 500 375" width="500" version="1.1" xmlns:cc="http://creativecommons.org/ns#" xmlns:dc="http://purl.org/dc/elements/1.1/"><metadata id="metadata8"><rdf:RDF><cc:Work rdf:about=""><dc:format>image/svg+xml</dc:format><dc:type rdf:resource="http://purl.org/dc/dcmitype/StillImage"/><dc:title/></cc:Work></rdf:RDF></metadata><defs id="defs6"><clipPath id="clipPath16" clipPathUnits="userSpaceOnUse"><path id="path18" d="m0 595.28h841.89v-595.28h-841.89v595.28z"/></clipPath></defs><g id="g10" transform="matrix(1.25 0 0 -1.25 -276.88 558.47)"><g id="g12"><g id="g14" clip-path="url(#clipPath16)"><g id="g20" transform="translate(513.92 340.68)"><path id="path22" d="m0 0c2.431 0 4.403 1.315 4.403 2.93 0 1.623-1.972 2.938-4.403 2.938s-4.396-1.315-4.396-2.938c0-1.615 1.965-2.93 4.396-2.93m-2.298-8.982c-5.461 0.2-9.747 4.803-9.564 10.272 0.084 2.647 1.216 5.094 3.138 6.901 1.932 1.807 4.453 2.747 7.101 2.647 5.469-0.192 9.756-4.787 9.572-10.264-0.083-2.639-1.199-5.086-3.13-6.901-1.939-1.798-4.462-2.738-7.117-2.655" fill="#62c337"/></g><g id="g24" transform="translate(497.65 341.95)"><path id="path26" d="m0 0c0.131 3.724 1.691 7.178 4.418 9.709 2.719 2.548 6.271 3.862 9.995 3.74 7.691-0.278 13.718-6.753 13.456-14.437-0.139-3.715-1.699-7.161-4.418-9.7-2.719-2.548-6.262-3.863-10.002-3.741-7.675 0.286-13.701 6.754-13.449 14.429m37.26-13.726c0.628 0.424 1.102 0.768 1.298 0.841l0.205 0.335c-0.533 3.372-5.554 19.703-9.342 23.623-1.054 1.078-1.895 2.122-3.594 3.119-13.725 8.002-46.314 12.837-47.841 13.057l-0.261-0.074-0.098-0.228s-0.123-6.761-0.14-7.513c-3.332 1.11-27.525 8.925-50.21 9.717-19.229 0.678-45.499 1.593-82.619-21.222l-1.095-0.686c-17.458-10.892-29.51-24.317-35.813-39.93-1.977-4.907-4.639-15.988-2.01-26.415 1.144-4.565 3.259-9.138 6.117-13.237 6.443-9.259 17.262-15.41 28.914-16.446 16.446-1.469 28.907 5.92 33.34 19.753 3.045 9.545 0 23.55-11.676 30.695-9.498 5.822-19.721 4.491-25.641 0.579-5.144-3.412-8.059-8.703-8.002-14.526 0.114-10.313 9.007-15.8 15.393-15.808 1.861 0 3.722 0.318 5.83 1.004 0.743 0.228 1.453 0.505 2.228 0.988l0.237 0.154 0.156 0.09-0.058-0.024c1.462 0.98 2.344 2.596 2.344 4.328 0 0.473-0.073 0.955-0.204 1.436-0.751 2.606-3.332 4.19-6.01 3.699l-0.359-0.073-0.491-0.163-0.71-0.236c-1.469-0.368-2.581-0.393-2.809-0.401-0.751 0.049-4.434 1.151-4.434 5.185v0.049c0.009 1.478 0.605 2.515 0.931 3.079 1.135 1.797 4.27 3.56 8.509 3.184 5.552-0.473 9.553-3.323 12.207-8.696 2.467-4.998 1.821-11.138-1.657-15.645-3.455-4.468-9.603-6.362-17.785-5.471-8.248 0.905-15.22 5.65-19.124 13.04-3.821 7.219-4.034 15.785-0.547 22.365 8.354 15.76 24.121 15.597 32.769 14.103 12.804-2.213 24.423-12.461 29.592-26.089 0.825-2.173 1.249-3.896 1.616-5.463l0.556-2.36 14.461-7.064 0.196-0.138h0.001l0.35 0.033 0.058 0.416c-0.09 0.327-0.302 0.621-0.63 4.672-0.277 3.584-0.841 13.415 4.108 18.29 1.919 1.903 4.85 3.593 7.162 4.14 9.479 2.311 21.785 0.71 32.294-11.44 5.423-6.279 8.085-9.146 9.416-10.428l0.456-0.424 0.555-0.4c0.433-0.245 18.063-8.361 18.063-8.361l0.358 0.089 0.009 0.383c-0.113 0.131-11.17 14.413-9.211 26.179 1.552 9.374 9.015 8.533 19.328 7.358 3.373-0.384 7.211-0.825 11.18-0.915 11.079-0.065 23.019 1.968 30.376 5.185 4.76 2.082 7.798 3.455 9.7 5.185 0.686 0.564 1.044 1.495 1.412 2.475l0.254 0.661c0.31 0.792 0.759 2.49 0.955 3.413 0.091 0.408 0.131 0.85-0.155 1.07l-1.021-0.188c-3.225-1.935-11.301-5.626-18.862-5.773-9.366-0.196-28.244 9.424-30.213 10.444l-0.187 0.22c-0.475 1.128-3.308 7.831-3.904 9.243 13.588-8.948 24.856-13.898 33.487-14.665 9.603-0.857 17.092 4.385 20.292 6.623" fill="#62c337"/></g><g id="g28" transform="translate(542.28 255.7)"><path id="path30" d="m0 0h-0.162c-0.187 0-0.349 0.162-0.349 0.35v2.5l-0.547-0.833c-0.062-0.087-0.174-0.124-0.274-0.124h-0.063c-0.098 0-0.21 0.037-0.273 0.124l-0.56 0.833v-2.5c0-0.188-0.162-0.35-0.361-0.35h-0.161c-0.188 0-0.349 0.162-0.349 0.35v2.986h-1.68v-2.986c0-0.188-0.174-0.35-0.373-0.35h-0.15c-0.186 0-0.348 0.162-0.348 0.35v2.986h-1.257c-0.187 0-0.336 0.125-0.336 0.323v0.175c0 0.199 0.149 0.323 0.336 0.323h4.405c0.175 0 0.286-0.061 0.349-0.162l0.834-1.257 0.834 1.257c0.062 0.087 0.162 0.162 0.348 0.162h0.56v-3.833c0-0.186-0.174-0.348-0.373-0.348" fill="#62c337"/></g><g id="g32" transform="translate(398.23 260.94)"><path id="path34" d="m0 0c-6.023 0-9.359-5.103-9.359-8.637v-4.531c0-5.189 4.244-8.412 8.189-8.412h13.814c1.73 0 2.091-1.133 2.091-2.091v-2.925c0-0.31-0.049-3.124-2.091-3.124h-18.854c-1.867 0-3.224-1.294-3.224-3.073v-0.81c0-1.766 1.344-3.074 3.224-3.074h19.887c5.19 0 8.551 3.61 8.551 9.21v4.891c0 5.252-3.785 7.603-7.531 7.603h-13.59c-2.053 0-2.974 1.52-2.974 2.615v2.688c0 1.705 1.133 2.676 3.124 2.676h15.058c1.842 0 3.224 1.318 3.224 3.074v0.809c0 1.742-1.406 3.074-3.286 3.074h-16.229" fill="#62c337"/></g><g id="g36" transform="translate(454.77 260.94)"><path id="path38" d="m0 0c-1.78 0-3.224-1.443-3.224-3.224v-23.148c0-1.842-1.505-3.335-3.335-3.335h-10.504c-1.842 0-3.335 1.493-3.335 3.335v23.148c0 1.781-1.431 3.224-3.224 3.224h-1.021c-1.792 0-3.222-1.419-3.222-3.224v-24.032c0-5.588 4.392-9.644 10.454-9.644h11.225c6.061 0 10.455 4.056 10.455 9.644v24.032c0 1.805-1.419 3.224-3.224 3.224h-1.021" fill="#62c337"/></g><g id="g40" transform="translate(474.89 260.94)"><path id="path42" d="m0 0c-6.023 0-9.359-5.103-9.359-8.637v-4.531c0-5.189 4.255-8.412 8.189-8.412h13.814c1.73 0 2.103-1.133 2.103-2.091v-2.925c0-0.31-0.061-3.124-2.103-3.124h-18.855c-1.866 0-3.223-1.294-3.223-3.073v-0.81c0-1.766 1.357-3.074 3.223-3.074h19.876c5.202 0 8.549 3.61 8.549 9.21v4.891c0 5.252-3.771 7.603-7.528 7.603h-13.591c-2.054 0-2.975 1.52-2.975 2.615v2.688c0 1.705 1.133 2.676 3.111 2.676h15.059c1.83 0 3.224 1.318 3.224 3.074v0.809c0 1.742-1.407 3.074-3.298 3.074h-16.216" fill="#62c337"/></g><g id="g44" transform="translate(506.66 260.94)"><path id="path46" d="m0 0c-1.779 0-3.148-1.319-3.148-3.074v-30.529c0-1.742 1.318-3.074 3.085-3.074h24.331c1.867 0 3.223 1.294 3.223 3.074v0.81c0 1.767-1.344 3.073-3.223 3.073h-19.925v7.779h14.598c1.868 0 3.224 1.295 3.224 3.086v0.796c0 1.78-1.356 3.086-3.224 3.086h-14.598v7.991h18.917c1.867 0 3.223 1.294 3.223 3.074v0.808c0 1.781-1.356 3.075-3.223 3.075h-23.247" fill="#62c337"/></g><g id="g48" transform="translate(298.2 230.07)"><path id="path50" d="m0 0v10.504c0 1.232 1.009 2.24 2.24 2.24h5.8c1.207 0 2.24-1.021 2.24-2.24v-10.504c0-1.232-1.008-2.24-2.24-2.24h-5.85c-1.231 0-2.19 0.983-2.19 2.24m1.605 16.354c-3.036 0-5.512-2.366-5.512-5.29v-11.512c0-2.962 2.389-5.376 5.326-5.376h7.442c2.938 0 5.339 2.414 5.339 5.376v11.512c0 2.913-2.476 5.29-5.512 5.29h-7.083z" fill="#62c337"/></g><g id="g52" transform="translate(321.84 230.29)"><path id="path54" d="m0 0v10.043c0 1.381 1.083 2.464 2.465 2.464h5.426c1.381 0 2.463-1.083 2.463-2.464v-10.043c0-1.357-1.094-2.465-2.463-2.465h-5.426c-1.358 0-2.465 1.108-2.465 2.465m7.442 16.266c-2.153 0-3.758-0.772-5.065-1.395-0.784-0.373-1.468-0.696-2.003-0.696-0.225 0-0.436 0.098-0.548 0.273l-0.485 0.947c-0.112 0.248-0.611 0.734-1.233 0.734h-0.721c-0.698 0-1.27-0.623-1.27-1.406v-29.185c0-0.909 0.71-1.63 1.631-1.63h0.635c0.895 0 1.63 0.735 1.63 1.63v9.683c0 0.286 0.186 0.585 0.361 0.585 0.535 0 1.219-0.299 2.016-0.673 1.294-0.584 2.912-1.331 5.065-1.331h0.672c3.796 0 6.16 2.165 6.16 5.649v11.139c0 3.435-2.414 5.663-6.16 5.663h-0.685v0.013z" fill="#62c337"/></g><g id="g56" transform="translate(345.54 240.62)"><path id="path58" d="m0 0c0 1.22 0.959 2.19 2.19 2.19h5.987c1.232 0 2.19-0.959 2.19-2.19v-3.56h-10.367v3.56m1.605 5.8c-3.036 0-5.512-2.365-5.512-5.289v-11.426c0-2.961 2.402-5.476 5.239-5.476h7.679c0.946 0 1.631 0.648 1.631 1.544v0.497c0 0.896-0.685 1.543-1.631 1.543h-6.297c-1.768 0-2.701 0.86-2.701 2.515v3.335h11.375c1.817 0 2.912 1.12 2.912 3.012v4.43c0 2.912-2.477 5.289-5.513 5.289h-7.169l-0.013 0.026z" fill="#62c337"/></g><g id="g60" transform="translate(375.68 246.56)"><path id="path62" d="m0 0c-2.141 0-3.759-0.76-5.053-1.382-0.809-0.373-1.506-0.709-2.066-0.709-0.249 0-0.349 0.025-0.535 0.361l-0.449 0.822c-0.248 0.51-0.683 0.771-1.281 0.771h-0.635c-0.758 0-1.306-0.586-1.306-1.406v-19.141c0-0.909 0.721-1.643 1.63-1.643h0.634c0.897 0 1.63 0.734 1.63 1.643v14.486c0 1.356 1.109 2.464 2.465 2.464h5.426c1.356 0 2.464-1.108 2.464-2.464v-14.486c0-0.909 0.722-1.643 1.631-1.643h0.634c0.896 0 1.63 0.734 1.63 1.643v15.021c0 3.434-2.414 5.663-6.16 5.663h-0.684" fill="#62c337"/></g></g></g></g></svg>
